<svg width="30" height="30" viewBox="0 0 30 30" fill="none" xmlns="http://www.w3.org/2000/svg">
<path fill-rule="evenodd" clip-rule="evenodd" d="M0 18.9474C0 19.8588 0.560185 20.6767 1.52384 20.6767C3.35355 20.6767 4.5703 20.1763 6.12176 19.4985C7.83011 18.7522 9.22309 17.9921 10.8433 17.0826C11.2456 16.8567 11.7815 16.6265 11.8699 16.3157C11.14 16.3726 7.47975 17.9517 5.74643 17.1691C3.76793 16.2758 7.60955 11.8199 8.16903 11.1169L9.52315 9.60422C9.71275 9.40982 9.86823 9.35854 10.0872 9.15557C12.6996 6.73193 20.7926 0.63761 24.4095 2.45514C24.6367 2.5694 24.7769 2.68037 24.9786 2.82382C25.2104 2.98871 25.2984 3.16134 25.5847 3.23307C26.14 2.24953 26.4773 0 24.3015 0C21.617 0 18.35 1.81505 16.041 2.93281C15.0745 3.40075 13.5076 4.31669 12.5916 4.88703C11.2158 5.74344 8.36022 7.75768 7.19816 8.85334C6.95069 9.08681 6.76232 9.28352 6.49657 9.47363C6.23468 9.66094 6.03558 9.86276 5.79321 10.0924C5.53871 10.3335 5.4265 10.5182 5.15353 10.7709C3.53277 12.2717 0.000175882 16.6552 0.000175882 18.9473L0 18.9474Z" fill="white"/>
<path fill-rule="evenodd" clip-rule="evenodd" d="M14.7576 14.7369C14.9731 14.8304 15.0643 14.7494 15.3065 14.6539L17.1325 13.9558C17.8667 13.7159 20.789 12.8826 21.6001 13.7355C22.6354 14.8243 21.3845 17.0853 20.7726 17.8944L19.3485 19.4916C18.9944 19.8193 18.9116 20.0193 18.3477 20.5083L16.139 22.3475C15.9518 22.5005 15.7591 22.649 15.5711 22.7925C13.5208 24.3577 9.35994 27.1295 7.0244 28.4644C6.62216 28.6944 4.65914 29.7857 4.4917 29.9998C5.28845 29.9998 7.40976 28.8574 8.12754 28.5211C10.0047 27.6413 13.207 26.0218 14.9337 24.9769C15.4952 24.6369 15.9916 24.3665 16.5542 24.0149C17.1113 23.6667 17.6027 23.3537 18.1259 23.0072C19.152 22.3275 20.1253 21.5801 21.1054 20.8379C21.2461 20.7314 21.2971 20.6607 21.4385 20.5486C23.2511 19.1113 24.8745 17.5369 26.1138 15.6083C26.7719 14.584 28.6504 10.8515 26.2992 10.082C24.4134 9.46483 20.9386 11.1725 19.6464 11.8761L17.1482 13.2183C16.7299 13.4656 14.946 14.4956 14.7576 14.7367V14.7369Z" fill="white"/>
<path fill-rule="evenodd" clip-rule="evenodd" d="M23.6596 6.69169C23.6596 7.58883 24.6565 8.30146 25.5349 8.54269C28.7039 9.41278 31.5655 6.83118 29.02 5.27549C27.1051 4.10514 23.6594 4.9383 23.6594 6.69169H23.6596Z" fill="white"/>
</svg>
